<?xml version="1.0" encoding="UTF-8" standalone="no"?>
<!-- Created with Inkscape (http://www.inkscape.org/) -->

<svg
   xmlns:dc="http://purl.org/dc/elements/1.1/"
   xmlns:cc="http://creativecommons.org/ns#"
   xmlns:rdf="http://www.w3.org/1999/02/22-rdf-syntax-ns#"
   xmlns:svg="http://www.w3.org/2000/svg"
   xmlns="http://www.w3.org/2000/svg"
   xmlns:sodipodi="http://sodipodi.sourceforge.net/DTD/sodipodi-0.dtd"
   xmlns:inkscape="http://www.inkscape.org/namespaces/inkscape"
   width="20px"
   height="20px"
   viewBox="0 0 20 20"
   version="1.1"
   id="SVGRoot"
   inkscape:version="0.92.4 (f8dce91, 2019-08-02)"
   sodipodi:docname="youtube-icon.svg">
  <defs
     id="defs18" />
  <sodipodi:namedview
     id="base"
     pagecolor="#ffffff"
     bordercolor="#666666"
     borderopacity="1.0"
     inkscape:pageopacity="0.0"
     inkscape:pageshadow="2"
     inkscape:zoom="12.8"
     inkscape:cx="9.921875"
     inkscape:cy="10"
     inkscape:document-units="px"
     inkscape:current-layer="layer1"
     showgrid="false"
     inkscape:window-width="1853"
     inkscape:window-height="1025"
     inkscape:window-x="67"
     inkscape:window-y="27"
     inkscape:window-maximized="1"
     inkscape:grid-bbox="true" />
  <metadata
     id="metadata21">
    <rdf:RDF>
      <cc:Work
         rdf:about="">
        <dc:format>image/svg+xml</dc:format>
        <dc:type
           rdf:resource="http://purl.org/dc/dcmitype/StillImage" />
        <dc:title></dc:title>
      </cc:Work>
    </rdf:RDF>
  </metadata>
  <g
     inkscape:label="Layer 1"
     inkscape:groupmode="layer"
     id="layer1">
    <g
       id="g98"
       transform="matrix(0.21634616,0,0,0.21634616,2.630709,6.2139423)">
      <path
         style="fill:#fefcfc;stroke-width:0.31999999"
         d="M -7.5374985,17.5 V -10.98 H 34.0625 75.662498 V 17.5 45.979999 H 34.0625 -7.5374985 Z"
         id="path114"
         inkscape:connector-curvature="0" />
      <path
         style="fill:#fecfcf;stroke-width:0.31999999"
         d="M 11.822501,45.489554 C 1.4963837,45.051468 0.39003529,44.841737 -2.3005364,42.812233 -4.3155719,41.292287 -5.7910329,38.806242 -6.3831678,35.933292 -7.1946593,31.99606 -7.6658974,17.986724 -7.2509308,10.135757 -6.635518,-1.5075544 -6.4797692,-2.4217432 -4.6476127,-5.1447787 -2.4896484,-8.3520448 0.52088937,-9.831909 5.582501,-10.173508 c 9.325966,-0.629392 27.985653,-0.866818 40.789899,-0.519011 14.86744,0.403851 17.700576,0.652357 20.1847,1.7704844 5.804906,2.6128406 7.500823,8.58796113 7.49936,26.4220346 -9.6e-4,10.249139 -0.823472,18.145682 -2.220944,21.319167 -1.15888,2.631674 -3.953446,5.016288 -6.893017,5.881837 -3.62551,1.067526 -35.419458,1.539497 -53.119998,0.78855 z M 37.197073,22.150681 C 43.136186,18.722994 44.847956,17.597046 44.541754,17.31958 43.872157,16.712828 26.184174,6.6199997 25.790417,6.6199997 c -0.269971,0 -0.367917,2.8822179 -0.367917,10.8266663 0,5.954668 0.09268,10.919349 0.205962,11.032629 0.222601,0.222599 0.122902,0.27714 11.568611,-6.328614 z"
         id="path112"
         inkscape:connector-curvature="0" />
      <path
         style="fill:#feafaf;stroke-width:0.31999999"
         d="M 18.862501,45.76014 C 10.877682,45.476114 3.5969776,44.971458 2.0153178,44.592393 -2.770323,43.445452 -5.3704614,40.394799 -6.3801336,34.7423 -7.1842791,30.240412 -7.5965224,18.478176 -7.2213732,10.739831 -6.664938,-0.73796722 -6.0583289,-3.4519233 -3.4185082,-6.2741054 -1.6617467,-8.1522253 -0.18245749,-8.9538742 2.6564272,-9.5662032 9.5288497,-11.04854 55.651325,-11.140462 63.342499,-9.68715 c 2.709885,0.5120552 5.451299,2.0578581 6.900147,3.8907861 2.473552,3.129278 3.182361,7.4145944 3.410915,20.6216359 0.224682,12.983249 -0.491162,20.86105 -2.199974,24.210606 -1.773149,3.475654 -4.855914,5.36591 -9.711088,5.954527 -6.261859,0.759156 -30.796146,1.199572 -42.879998,0.769735 z M 35.508945,23.387657 c 5.364454,-3.09779 9.75086,-5.72579 9.747571,-5.840001 C 45.251616,17.377753 36.06826,11.98823 27.286574,7.0014688 L 25.4225,5.9429376 V 17.481469 c 0,6.346191 0.0749,11.53853 0.166445,11.53853 0.09155,0 4.555546,-2.534553 9.92,-5.632342 z"
         id="path110"
         inkscape:connector-curvature="0" />
      <path
         style="fill:#fe8e8e;stroke-width:0.31999999"
         d="M 24.76988,45.876671 C 24.674939,45.772953 22.226939,45.658373 19.329881,45.622053 12.656018,45.53838 6.0208159,45.157705 3.3425011,44.704825 -1.2183931,43.933615 -4.4551653,41.286255 -5.6092178,37.383202 -7.118986,32.277106 -7.763167,20.129336 -7.0878289,9.4999996 c 0.262782,-4.1359999 0.703542,-8.58498445 0.9794666,-9.88663243 1.2027399,-5.67380887 4.2972332,-8.48247297 10.2508634,-9.30402127 10.0064599,-1.3808029 47.9693359,-1.3793789 57.9199979,0.00217 4.667462,0.6480313 7.95807,2.8038059 9.458976,6.1968509 1.802659,4.07521116 2.707523,18.5568542 1.891475,30.2716292 -0.612307,8.789945 -1.591987,12.460204 -3.95729,14.825506 -2.473622,2.47362 -5.164249,3.216125 -13.473161,3.718061 C 49.529315,45.713397 25.01802,46.147749 24.76988,45.87667 Z M 36.726558,22.858246 C 44.0189,18.65906 45.55386,17.656995 45.206557,17.322271 44.632192,16.768703 26.368081,6.236313 25.662587,6.0518218 25.136808,5.9143274 25.1025,6.6100247 25.1025,17.409344 c 0,6.327193 0.09604,11.600028 0.213421,11.71741 0.117383,0.117383 0.729382,-0.09138 1.36,-0.463907 0.630618,-0.372531 5.153405,-2.984601 10.050637,-5.804601 z"
         id="path108"
         inkscape:connector-curvature="0" />
      <path
         style="fill:#fe7070;stroke-width:0.31999999"
         d="M 23.0225,45.782453 C 16.574948,45.623269 6.8288376,45.053004 4.0734265,44.673705 -2.9245908,43.71038 -5.5935327,40.417529 -6.5393614,31.579999 -7.4548099,23.026332 -7.5888942,17.18953 -7.0465879,9.4999996 -6.3091473,-0.95640114 -5.5077732,-4.0169947 -2.845146,-6.5460721 c 3.1017013,-2.946129 5.966483,-3.407226 25.547646,-4.1119869 15.980115,-0.575153 38.453036,0.387078 42.719999,1.829157 2.940077,0.9936396 5.292313,3.3141557 6.287504,6.2027163 1.951766,5.6650463 2.446748,25.3942807 0.904678,36.0591677 -1.045594,7.231283 -3.995235,10.375113 -10.552182,11.246886 -5.85832,0.778886 -27.450757,1.38871 -39.039999,1.102585 z m 12.64,-22.143273 c 5.368,-3.116714 9.76,-5.850955 9.76,-6.076092 0,-0.463994 -19.683388,-11.9387648 -20.069728,-11.6999939 -0.137651,0.085072 -0.250272,5.4021779 -0.250272,11.8157909 0,9.124644 0.08701,11.657409 0.4,11.644077 0.22,-0.0094 4.792,-2.567071 10.16,-5.683782 z"
         id="path106"
         inkscape:connector-curvature="0" />
      <path
         style="fill:#fe4e4e;stroke-width:0.31999999"
         d="M 21.7425,45.635909 C 12.865182,45.410901 6.0225941,44.948956 2.9579078,44.367749 -1.8431371,43.45725 -4.7914552,40.57213 -5.7836418,35.813577 -7.665022,26.790428 -7.6512029,7.5939891 -5.7573328,-0.73272146 -4.7872206,-4.9979793 -2.2701729,-7.8104346 1.5428391,-8.8896612 8.4059256,-10.832174 43.759648,-11.314898 59.822499,-9.6854185 c 5.04519,0.5118043 7.28432,1.3080003 9.27399,3.297669 2.072115,2.0721155 2.860352,4.0603007 3.53967,8.9281749 0.700535,5.0198949 0.973136,19.0257816 0.487568,25.0503966 -0.690819,8.571219 -1.567628,11.574988 -4.07358,13.955251 -1.820218,1.728918 -3.602253,2.480745 -7.072982,2.984032 -7.023731,1.018502 -24.609782,1.501833 -40.234665,1.105804 z M 36.917261,23.036931 C 41.74338,20.25091 45.743492,17.817019 45.806404,17.628286 45.960327,17.166516 25.807761,5.5664842 25.234068,5.7866304 24.856936,5.9313495 24.7825,7.8499696 24.7825,17.425956 c 0,8.229855 0.104106,11.570149 0.368858,11.834901 0.278477,0.278477 0.690125,0.181741 1.68,-0.394787 0.721129,-0.420003 5.259785,-3.043117 10.085903,-5.829139 z"
         id="path104"
         inkscape:connector-curvature="0" />
      <path
         style="fill:#fe2e2e;stroke-width:0.31999999"
         d="M 23.3425,45.631519 C 15.415562,45.432917 8.166852,44.95502 3.9825011,44.355135 -1.8437448,43.519861 -4.7064736,40.746722 -5.7811358,34.897049 -6.943545,28.569743 -7.6120895,14.102868 -6.9399986,9.8199996 -6.7604759,8.6759997 -6.4543074,6.0702474 -6.2596241,4.0294394 -5.7074816,-1.7585083 -4.804093,-4.3909988 -2.68554,-6.3855044 c 2.39582588,-2.255543 4.651286,-2.8548649 12.5345407,-3.3306838 3.0214253,-0.1823676 7.0775003,-0.4821698 9.0135003,-0.6662268 2.088336,-0.198539 8.530822,-0.277005 15.839999,-0.192922 16.546963,0.190354 26.796633,0.8598672 30.640844,2.0014756 2.138326,0.6350146 4.873337,3.0953845 5.766473,5.1874257 2.246618,5.2623625 2.900557,25.6188347 1.189152,37.0172447 -1.24833,8.31422 -4.388009,10.607523 -15.35647,11.216761 -1.936,0.107536 -4.6,0.328467 -5.92,0.49096 -3.106105,0.382368 -17.873561,0.538679 -27.679999,0.292989 z M 35.842676,23.83279 c 7.088918,-4.097725 10.052713,-5.973467 9.986009,-6.32 C 45.71105,16.901647 25.5638,5.2149021 25.110657,5.4949575 24.895902,5.6276845 24.7825,9.8380822 24.7825,17.678885 c 0,10.54154 0.05884,11.981114 0.489655,11.981114 0.269312,0 5.026044,-2.622243 10.570521,-5.827209 z"
         id="path102"
         inkscape:connector-curvature="0" />
      <path
         style="fill:#fe0000;stroke-width:0.31999999"
         d="m 19.662501,45.366799 c 0.88648,-0.121322 -1.020085,-0.288429 -4.96,-0.434739 C 7.5631854,44.666943 2.2009335,44.045036 0.36090186,43.268741 -1.2326958,42.596418 -3.5885057,40.408146 -4.3719407,38.872486 -5.4938123,36.673436 -6.529297,29.710079 -6.6153593,23.786095 -6.6426973,21.904316 -6.7211128,21.446815 -6.8974985,22.139999 -7.0367399,22.687209 -7.1399434,20.69206 -7.1375126,17.5 c 0.00235,-3.08 0.098218,-5.096 0.2130496,-4.48 0.1325136,0.710851 0.2918722,-0.633492 0.4362275,-3.6800004 0.2497806,-5.2714315 0.846316,-9.51790059 1.6967285,-12.0782532 0.7412289,-2.2316307 3.240575,-4.7495145 5.42425205,-5.4644833 C 3.7679715,-9.2292573 12.188606,-9.9590049 22.2225,-10.073745 c 3.736618,-0.04273 4.44697,-0.108401 2.88,-0.266255 -1.144,-0.115245 2.456,-0.209537 8,-0.209537 5.544,0 9.144,0.08315 8,0.184769 -1.306839,0.116087 1.072118,0.273772 6.4,0.4242105 11.924412,0.3366996 16.629986,0.8702152 19.199999,2.1768861 1.562169,0.7942528 3.369901,2.7550825 4.13176,4.4816767 1.541187,3.4927897 2.470675,14.1222597 2.153052,24.6219937 -0.418441,13.832442 -1.472825,18.12664 -5.107855,20.802819 -2.433533,1.791613 -5.980941,2.396899 -16.376957,2.794371 -3.817843,0.145972 -5.544227,0.305799 -4.639999,0.429572 0.792,0.108412 -5.328,0.197113 -13.6,0.197113 -8.272,0 -14.391999,-0.08868 -13.599999,-0.197075 z M 35.875482,24.094259 C 42.854813,20.061822 46.0913,18.021399 46.153968,17.61426 46.288436,16.740636 25.596305,4.7973895 24.920286,5.3584359 24.538248,5.6755002 24.4625,7.708609 24.4625,17.645848 c 0,6.549118 0.096,12.003486 0.213335,12.120817 0.117331,0.117334 0.393174,0.213334 0.612979,0.213334 0.219808,0 4.983808,-2.648582 10.586668,-5.88574 z"
         id="path100"
         inkscape:connector-curvature="0" />
    </g>
  </g>
</svg>
